<?xml version="1.0" encoding="iso-8859-1"?>
<!-- Uploaded to: SVG Repo, www.svgrepo.com, Generator: SVG Repo Mixer Tools -->
<svg height="800px" width="800px" version="1.1" id="Layer_1" xmlns="http://www.w3.org/2000/svg" xmlns:xlink="http://www.w3.org/1999/xlink" 
	 viewBox="0 0 512 512" xml:space="preserve">
<path style="fill:#FFB085;" d="M207.309,40.598c-28.788,28.788-34.183,70.071-12.049,92.205L299.514,28.55
	C277.378,6.416,236.097,11.81,207.309,40.598z"/>
<path style="fill:#C97767;" d="M299.514,28.55L195.261,132.803c22.134,22.134,63.415,16.74,92.205-12.049
	C316.254,91.966,321.648,50.684,299.514,28.55z"/>
<path d="M310.054,18.01C296.002,3.958,276.088-2.193,253.976,0.698c-20.655,2.699-40.972,13.126-57.207,29.361l0,0
	c-34.554,34.555-39.959,85.373-12.049,113.285c0.004,0.004,0.01,0.009,0.016,0.015c11.783,11.776,27.681,17.996,45.54,17.996
	c3.439,0,6.954-0.231,10.524-0.698c20.655-2.699,40.971-13.126,57.205-29.361c16.236-16.234,26.663-36.551,29.361-57.207
	C330.255,51.979,324.106,32.063,310.054,18.01z M217.849,51.139L217.849,51.139c11.613-11.612,25.814-19.028,39.989-20.88
	c6.445-0.841,12.465-0.453,17.792,1.094l-77.524,77.524C193.236,91.77,200.503,68.486,217.849,51.139z M297.806,70.226
	c-1.853,14.174-9.267,28.377-20.88,39.989c-11.613,11.613-25.814,19.029-39.989,20.881c-6.447,0.841-12.466,0.452-17.792-1.094
	l77.567-77.567C298.257,57.761,298.648,63.78,297.806,70.226z"/>
<path style="fill:#F1414F;" d="M319.384,497.094H175.391c-38.492,0-75.186-16.291-101.004-44.844l0,0h345.999l0,0
	C394.57,480.803,357.876,497.094,319.384,497.094z"/>
<path style="fill:#FFAB64;" d="M247.387,451.226L247.387,451.226c-88.578,0-160.385-71.807-160.385-160.385v-82.896h320.771v82.896
	C407.773,379.419,335.965,451.226,247.387,451.226z"/>
<path d="M418.071,330.833c38.419-7.373,67.335-41.496,67.335-81.44v-41.448c0-8.233-6.673-14.906-14.906-14.906h-62.728h-5.301
	H87.002c-8.233,0-14.906,6.673-14.906,14.906v82.896c0,61.184,31.516,115.136,79.159,146.503H74.387H41.499
	c-8.233,0-14.906,6.673-14.906,14.906s6.673,14.906,14.906,14.906h26.49C96.265,495.73,135.025,512,175.391,512h143.993
	c40.366,0,79.126-16.27,107.402-44.844h26.491c8.233,0,14.906-6.673,14.906-14.906s-6.673-14.906-14.906-14.906h-32.887h-76.868
	C380.451,413.029,407.691,375.144,418.071,330.833z M319.384,482.188H175.391c-20.612,0-40.706-5.283-58.441-15.031h260.874
	C360.088,476.905,339.995,482.188,319.384,482.188z M455.595,249.393c0,21.976-13.658,41.196-33.096,49.178
	c0.112-2.564,0.18-5.14,0.18-7.73v-67.99h32.916V249.393z M247.387,436.32L247.387,436.32c-80.217,0-145.479-65.262-145.479-145.479
	v-67.99h290.959c0,0-0.163,75.813-0.47,79.664H195.882c-8.233,0-14.906,6.673-14.906,14.906c0,8.233,6.673,14.906,14.906,14.906
	H386.83C368.926,392.395,313.195,436.32,247.387,436.32z"/>
<path d="M151.165,332.326c-0.969,0-1.953-0.089-2.907-0.283c-0.954-0.194-1.893-0.492-2.802-0.865
	c-0.894-0.373-1.759-0.835-2.564-1.371c-0.82-0.537-1.58-1.163-2.266-1.848c-0.686-0.686-1.312-1.446-1.863-2.266
	c-0.537-0.805-0.984-1.669-1.356-2.579c-0.373-0.894-0.671-1.833-0.865-2.787s-0.283-1.938-0.283-2.907
	c0-0.969,0.089-1.953,0.283-2.907c0.194-0.954,0.492-1.893,0.865-2.787c0.373-0.909,0.82-1.774,1.356-2.579
	c0.552-0.82,1.178-1.58,1.863-2.266c0.686-0.686,1.446-1.312,2.266-1.848c0.805-0.537,1.669-0.999,2.564-1.371
	c0.909-0.373,1.848-0.671,2.802-0.85c1.908-0.388,3.89-0.388,5.813,0c0.954,0.179,1.893,0.477,2.787,0.85
	c0.909,0.373,1.774,0.835,2.579,1.371c0.82,0.537,1.58,1.163,2.266,1.848s1.312,1.446,1.848,2.266
	c0.537,0.805,0.999,1.669,1.371,2.579c0.373,0.894,0.671,1.833,0.85,2.787c0.194,0.954,0.298,1.938,0.298,2.907
	c0,0.969-0.104,1.953-0.298,2.907c-0.179,0.954-0.477,1.893-0.85,2.787c-0.373,0.909-0.835,1.774-1.371,2.579
	c-0.537,0.82-1.163,1.58-1.848,2.266s-1.446,1.312-2.266,1.848c-0.805,0.537-1.669,0.999-2.579,1.371
	c-0.894,0.373-1.833,0.671-2.787,0.865C153.118,332.237,152.134,332.326,151.165,332.326z"/>
</svg>