<?xml version="1.0" ?>

<!DOCTYPE svg PUBLIC '-//W3C//DTD SVG 1.1//EN' 'http://www.w3.org/Graphics/SVG/1.1/DTD/svg11.dtd'>

<!-- Uploaded to: SVG Repo, www.svgrepo.com, Generator: SVG Repo Mixer Tools -->
<svg width="800px" height="800px" viewBox="0 0 512 512" id="Layer_1" version="1.1" xml:space="preserve"
	xmlns="http://www.w3.org/2000/svg" xmlns:xlink="http://www.w3.org/1999/xlink">

	<style type="text/css">
		.st0 {
			fill: none;
			stroke: #FFFF;
			stroke-width: 16;
		}
	</style>

	<g>

		<g id="XMLID_3_">

			<g id="XMLID_1_">

				<path class="st0"
					d="M327.6,152h-14.5l-1.1-22.7c0-14-0.2-25.3-15.2-25.3h-81.6c-15,0-15.2,11.3-15.2,25.3      l-1.1,22.7h-15.5c-8.8,0-15.9,10.7-15.9,24c0,13.3,7.1,24,15.9,24h13.3l-31.9,182.7c0,14,12.2,25.3,27.2,25.3h128      c15,0,27.2-11.3,27.2-25.3L315.4,200h12.2c8.8,0,15.9-10.7,15.9-24C343.5,162.7,336.4,152,327.6,152z"
					id="XMLID_936_" />

				<line class="st0" id="XMLID_935_" x1="232" x2="232" y1="104" y2="128" />

				<line class="st0" id="XMLID_934_" x1="280" x2="280" y1="104" y2="128" />

				<line class="st0" id="XMLID_933_" x1="200" x2="313.1" y1="152" y2="152" />

				<line class="st0" id="XMLID_932_" x1="196.6" x2="315.4" y1="200" y2="200" />

			</g>

			<g id="XMLID_2_">

				<path fill='#FFFF'
					d="M256,16c32.4,0,63.8,6.3,93.4,18.9c28.6,12.1,54.2,29.4,76.3,51.4c22,22,39.4,47.7,51.4,76.3      c12.5,29.6,18.9,61,18.9,93.4s-6.3,63.8-18.9,93.4c-12.1,28.6-29.4,54.2-51.4,76.3c-22,22-47.7,39.4-76.3,51.4      c-29.6,12.5-61,18.9-93.4,18.9s-63.8-6.3-93.4-18.9c-28.6-12.1-54.2-29.4-76.3-51.4c-22-22-39.4-47.7-51.4-76.3      C22.3,319.8,16,288.4,16,256s6.3-63.8,18.9-93.4c12.1-28.6,29.4-54.2,51.4-76.3c22-22,47.7-39.4,76.3-51.4      C192.2,22.3,223.6,16,256,16 M256,0C114.6,0,0,114.6,0,256s114.6,256,256,256s256-114.6,256-256S397.4,0,256,0L256,0z"
					id="XMLID_15_" />

			</g>

		</g>

	</g>

</svg>